<mxfile host="Electron" modified="2024-02-17T22:51:03.014Z" agent="Mozilla/5.0 (X11; Linux x86_64) AppleWebKit/537.36 (KHTML, like Gecko) draw.io/21.6.1 Chrome/112.0.5615.204 Electron/24.8.8 Safari/537.36" etag="0GKMOEtJ5D2xaju3Ggzz" version="21.6.1" type="device">
  <diagram name="Page-1" id="eZLIKH1oal19LNsvK7_N">
    <mxGraphModel dx="2888" dy="1016" grid="1" gridSize="10" guides="1" tooltips="1" connect="1" arrows="1" fold="1" page="1" pageScale="1" pageWidth="850" pageHeight="1100" math="0" shadow="0">
      <root>
        <mxCell id="0" />
        <mxCell id="1" parent="0" />
        <mxCell id="Up8UbrId6z3frbub8O2f-8" value="ContraseÃ±a&lt;br&gt;(hash)" style="ellipse;whiteSpace=wrap;html=1;" parent="1" vertex="1">
          <mxGeometry x="315" y="210" width="110" height="60" as="geometry" />
        </mxCell>
        <mxCell id="Up8UbrId6z3frbub8O2f-11" value="Usuario" style="rounded=0;whiteSpace=wrap;html=1;" parent="1" vertex="1">
          <mxGeometry x="520" y="210" width="120" height="60" as="geometry" />
        </mxCell>
        <mxCell id="Up8UbrId6z3frbub8O2f-15" value="" style="endArrow=none;html=1;rounded=0;entryX=0;entryY=0.5;entryDx=0;entryDy=0;exitX=1;exitY=0.5;exitDx=0;exitDy=0;" parent="1" target="Up8UbrId6z3frbub8O2f-11" edge="1">
          <mxGeometry width="50" height="50" relative="1" as="geometry">
            <mxPoint x="425" y="240.00000000000023" as="sourcePoint" />
            <mxPoint x="305" y="250" as="targetPoint" />
          </mxGeometry>
        </mxCell>
        <mxCell id="Up8UbrId6z3frbub8O2f-17" value="Correo" style="ellipse;whiteSpace=wrap;html=1;" parent="1" vertex="1">
          <mxGeometry x="370" y="90" width="110" height="60" as="geometry" />
        </mxCell>
        <mxCell id="Up8UbrId6z3frbub8O2f-18" value="&lt;u&gt;IdUsuario&lt;/u&gt;" style="ellipse;whiteSpace=wrap;html=1;" parent="1" vertex="1">
          <mxGeometry x="525" y="90" width="110" height="60" as="geometry" />
        </mxCell>
        <mxCell id="Up8UbrId6z3frbub8O2f-19" value="Sexo" style="ellipse;whiteSpace=wrap;html=1;" parent="1" vertex="1">
          <mxGeometry x="690" y="90" width="110" height="60" as="geometry" />
        </mxCell>
        <mxCell id="Up8UbrId6z3frbub8O2f-20" value="fechaNacimiento" style="ellipse;whiteSpace=wrap;html=1;" parent="1" vertex="1">
          <mxGeometry x="690" y="180" width="110" height="60" as="geometry" />
        </mxCell>
        <mxCell id="Up8UbrId6z3frbub8O2f-21" value="Nacionalidad" style="ellipse;whiteSpace=wrap;html=1;" parent="1" vertex="1">
          <mxGeometry x="690" y="270" width="110" height="60" as="geometry" />
        </mxCell>
        <mxCell id="Up8UbrId6z3frbub8O2f-22" value="" style="endArrow=none;html=1;rounded=0;entryX=0;entryY=1;entryDx=0;entryDy=0;exitX=0.75;exitY=0;exitDx=0;exitDy=0;" parent="1" source="Up8UbrId6z3frbub8O2f-11" target="Up8UbrId6z3frbub8O2f-19" edge="1">
          <mxGeometry width="50" height="50" relative="1" as="geometry">
            <mxPoint x="600" y="210" as="sourcePoint" />
            <mxPoint x="650" y="160" as="targetPoint" />
          </mxGeometry>
        </mxCell>
        <mxCell id="Up8UbrId6z3frbub8O2f-23" value="" style="endArrow=none;html=1;rounded=0;entryX=0.5;entryY=1;entryDx=0;entryDy=0;exitX=0.5;exitY=0;exitDx=0;exitDy=0;" parent="1" source="Up8UbrId6z3frbub8O2f-11" target="Up8UbrId6z3frbub8O2f-18" edge="1">
          <mxGeometry width="50" height="50" relative="1" as="geometry">
            <mxPoint x="520" y="389" as="sourcePoint" />
            <mxPoint x="626" y="320" as="targetPoint" />
          </mxGeometry>
        </mxCell>
        <mxCell id="Up8UbrId6z3frbub8O2f-24" value="" style="endArrow=none;html=1;rounded=0;entryX=0.5;entryY=1;entryDx=0;entryDy=0;exitX=0.25;exitY=0;exitDx=0;exitDy=0;" parent="1" source="Up8UbrId6z3frbub8O2f-11" target="Up8UbrId6z3frbub8O2f-17" edge="1">
          <mxGeometry width="50" height="50" relative="1" as="geometry">
            <mxPoint x="590" y="220" as="sourcePoint" />
            <mxPoint x="590" y="160" as="targetPoint" />
          </mxGeometry>
        </mxCell>
        <mxCell id="Up8UbrId6z3frbub8O2f-25" value="" style="endArrow=none;html=1;rounded=0;entryX=1;entryY=0.25;entryDx=0;entryDy=0;exitX=0;exitY=0.5;exitDx=0;exitDy=0;" parent="1" source="Up8UbrId6z3frbub8O2f-20" target="Up8UbrId6z3frbub8O2f-11" edge="1">
          <mxGeometry width="50" height="50" relative="1" as="geometry">
            <mxPoint x="560" y="220" as="sourcePoint" />
            <mxPoint x="435" y="160" as="targetPoint" />
          </mxGeometry>
        </mxCell>
        <mxCell id="Up8UbrId6z3frbub8O2f-31" value="" style="endArrow=none;html=1;rounded=0;entryX=1;entryY=0.75;entryDx=0;entryDy=0;exitX=0;exitY=0.5;exitDx=0;exitDy=0;" parent="1" source="Up8UbrId6z3frbub8O2f-21" target="Up8UbrId6z3frbub8O2f-11" edge="1">
          <mxGeometry width="50" height="50" relative="1" as="geometry">
            <mxPoint x="700" y="220" as="sourcePoint" />
            <mxPoint x="650" y="235" as="targetPoint" />
          </mxGeometry>
        </mxCell>
        <mxCell id="Up8UbrId6z3frbub8O2f-33" value="Puntos" style="ellipse;whiteSpace=wrap;html=1;" parent="1" vertex="1">
          <mxGeometry x="690" y="360" width="110" height="60" as="geometry" />
        </mxCell>
        <mxCell id="Up8UbrId6z3frbub8O2f-35" value="" style="endArrow=none;html=1;rounded=0;entryX=0;entryY=0.5;entryDx=0;entryDy=0;exitX=0.896;exitY=0.983;exitDx=0;exitDy=0;exitPerimeter=0;" parent="1" source="Up8UbrId6z3frbub8O2f-11" target="Up8UbrId6z3frbub8O2f-33" edge="1">
          <mxGeometry width="50" height="50" relative="1" as="geometry">
            <mxPoint x="330" y="410" as="sourcePoint" />
            <mxPoint x="380" y="360" as="targetPoint" />
          </mxGeometry>
        </mxCell>
        <mxCell id="Up8UbrId6z3frbub8O2f-36" value="" style="endArrow=none;html=1;rounded=0;exitX=0.663;exitY=1.019;exitDx=0;exitDy=0;exitPerimeter=0;entryX=0;entryY=0.5;entryDx=0;entryDy=0;" parent="1" edge="1">
          <mxGeometry width="50" height="50" relative="1" as="geometry">
            <mxPoint x="620" y="270" as="sourcePoint" />
            <mxPoint x="740.44" y="638.86" as="targetPoint" />
            <Array as="points">
              <mxPoint x="620.44" y="638.86" />
            </Array>
          </mxGeometry>
        </mxCell>
        <mxCell id="Up8UbrId6z3frbub8O2f-39" value="esta en" style="rhombus;whiteSpace=wrap;html=1;" parent="1" vertex="1">
          <mxGeometry x="-125" y="400" width="130" height="60" as="geometry" />
        </mxCell>
        <mxCell id="Up8UbrId6z3frbub8O2f-47" value="Partida" style="rounded=0;whiteSpace=wrap;html=1;" parent="1" vertex="1">
          <mxGeometry x="-390" y="400" width="120" height="60" as="geometry" />
        </mxCell>
        <mxCell id="Up8UbrId6z3frbub8O2f-48" value="&lt;u&gt;idPartida&lt;/u&gt;" style="ellipse;whiteSpace=wrap;html=1;" parent="1" vertex="1">
          <mxGeometry x="-510" y="280" width="110" height="60" as="geometry" />
        </mxCell>
        <mxCell id="Up8UbrId6z3frbub8O2f-49" value="Iniciada" style="ellipse;whiteSpace=wrap;html=1;" parent="1" vertex="1">
          <mxGeometry x="-385" y="280" width="110" height="60" as="geometry" />
        </mxCell>
        <mxCell id="Up8UbrId6z3frbub8O2f-50" value="" style="endArrow=none;html=1;rounded=0;entryX=0.5;entryY=1;entryDx=0;entryDy=0;exitX=0.5;exitY=0;exitDx=0;exitDy=0;" parent="1" source="Up8UbrId6z3frbub8O2f-47" target="Up8UbrId6z3frbub8O2f-49" edge="1">
          <mxGeometry width="50" height="50" relative="1" as="geometry">
            <mxPoint x="-140" y="600" as="sourcePoint" />
            <mxPoint x="-90" y="550" as="targetPoint" />
          </mxGeometry>
        </mxCell>
        <mxCell id="Up8UbrId6z3frbub8O2f-51" value="" style="endArrow=none;html=1;rounded=0;entryX=0.5;entryY=1;entryDx=0;entryDy=0;exitX=0.25;exitY=0;exitDx=0;exitDy=0;" parent="1" source="Up8UbrId6z3frbub8O2f-47" target="Up8UbrId6z3frbub8O2f-48" edge="1">
          <mxGeometry width="50" height="50" relative="1" as="geometry">
            <mxPoint x="-290" y="410" as="sourcePoint" />
            <mxPoint x="-245" y="350" as="targetPoint" />
          </mxGeometry>
        </mxCell>
        <mxCell id="Up8UbrId6z3frbub8O2f-52" value="" style="endArrow=none;html=1;rounded=0;entryX=0;entryY=0.5;entryDx=0;entryDy=0;exitX=1;exitY=0.5;exitDx=0;exitDy=0;" parent="1" source="Up8UbrId6z3frbub8O2f-47" target="Up8UbrId6z3frbub8O2f-39" edge="1">
          <mxGeometry width="50" height="50" relative="1" as="geometry">
            <mxPoint x="-140" y="600" as="sourcePoint" />
            <mxPoint x="-175" y="430" as="targetPoint" />
          </mxGeometry>
        </mxCell>
        <mxCell id="Up8UbrId6z3frbub8O2f-53" value="fechaInicio" style="ellipse;whiteSpace=wrap;html=1;" parent="1" vertex="1">
          <mxGeometry x="-280" y="510" width="110" height="60" as="geometry" />
        </mxCell>
        <mxCell id="Up8UbrId6z3frbub8O2f-54" value="fechaFin" style="ellipse;whiteSpace=wrap;html=1;" parent="1" vertex="1">
          <mxGeometry x="-460" y="512" width="110" height="60" as="geometry" />
        </mxCell>
        <mxCell id="Up8UbrId6z3frbub8O2f-56" value="" style="endArrow=none;html=1;rounded=0;entryX=0.75;entryY=1;entryDx=0;entryDy=0;exitX=0.5;exitY=0;exitDx=0;exitDy=0;" parent="1" source="Up8UbrId6z3frbub8O2f-53" target="Up8UbrId6z3frbub8O2f-47" edge="1">
          <mxGeometry width="50" height="50" relative="1" as="geometry">
            <mxPoint x="-360" y="612" as="sourcePoint" />
            <mxPoint x="-245" y="562" as="targetPoint" />
          </mxGeometry>
        </mxCell>
        <mxCell id="Up8UbrId6z3frbub8O2f-58" value="" style="endArrow=none;html=1;rounded=0;entryX=0.5;entryY=0;entryDx=0;entryDy=0;exitX=0.25;exitY=1;exitDx=0;exitDy=0;" parent="1" source="Up8UbrId6z3frbub8O2f-47" target="Up8UbrId6z3frbub8O2f-54" edge="1">
          <mxGeometry width="50" height="50" relative="1" as="geometry">
            <mxPoint x="-290" y="622" as="sourcePoint" />
            <mxPoint x="-395" y="582" as="targetPoint" />
          </mxGeometry>
        </mxCell>
        <mxCell id="Up8UbrId6z3frbub8O2f-59" value="" style="endArrow=none;html=1;rounded=0;entryX=0;entryY=0.5;entryDx=0;entryDy=0;exitX=0.5;exitY=1;exitDx=0;exitDy=0;" parent="1" source="WOAPnllCXagJjHV4k_21-29" target="WOAPnllCXagJjHV4k_21-23" edge="1">
          <mxGeometry width="50" height="50" relative="1" as="geometry">
            <mxPoint x="-330" y="480" as="sourcePoint" />
            <mxPoint x="-155" y="602" as="targetPoint" />
            <Array as="points">
              <mxPoint x="-330" y="600" />
            </Array>
          </mxGeometry>
        </mxCell>
        <mxCell id="Up8UbrId6z3frbub8O2f-60" value="" style="endArrow=none;html=1;rounded=0;entryX=0.5;entryY=1;entryDx=0;entryDy=0;exitX=1;exitY=0.5;exitDx=0;exitDy=0;" parent="1" source="Up8UbrId6z3frbub8O2f-39" edge="1">
          <mxGeometry width="50" height="50" relative="1" as="geometry">
            <mxPoint x="380" y="428" as="sourcePoint" />
            <mxPoint x="535" y="270" as="targetPoint" />
            <Array as="points">
              <mxPoint x="535" y="428" />
            </Array>
          </mxGeometry>
        </mxCell>
        <mxCell id="Up8UbrId6z3frbub8O2f-61" value="M:N" style="text;html=1;align=center;verticalAlign=middle;resizable=0;points=[];autosize=1;strokeColor=none;fillColor=none;" parent="1" vertex="1">
          <mxGeometry x="-85" y="370" width="50" height="30" as="geometry" />
        </mxCell>
        <mxCell id="Up8UbrId6z3frbub8O2f-77" value="esta en" style="rhombus;whiteSpace=wrap;html=1;" parent="1" vertex="1">
          <mxGeometry x="95" y="926" width="130" height="60" as="geometry" />
        </mxCell>
        <mxCell id="Up8UbrId6z3frbub8O2f-78" value="Chat" style="rounded=0;whiteSpace=wrap;html=1;" parent="1" vertex="1">
          <mxGeometry x="-120" y="926" width="120" height="60" as="geometry" />
        </mxCell>
        <mxCell id="Up8UbrId6z3frbub8O2f-83" value="" style="endArrow=none;html=1;rounded=0;exitX=1;exitY=0.5;exitDx=0;exitDy=0;entryX=0;entryY=0.5;entryDx=0;entryDy=0;" parent="1" source="Up8UbrId6z3frbub8O2f-78" target="Up8UbrId6z3frbub8O2f-77" edge="1">
          <mxGeometry width="50" height="50" relative="1" as="geometry">
            <mxPoint x="140" y="1126" as="sourcePoint" />
            <mxPoint x="80" y="956" as="targetPoint" />
          </mxGeometry>
        </mxCell>
        <mxCell id="Up8UbrId6z3frbub8O2f-90" value="" style="endArrow=none;html=1;rounded=0;entryX=0.25;entryY=1;entryDx=0;entryDy=0;exitX=1;exitY=0.5;exitDx=0;exitDy=0;" parent="1" source="Up8UbrId6z3frbub8O2f-77" edge="1">
          <mxGeometry width="50" height="50" relative="1" as="geometry">
            <mxPoint x="390" y="748" as="sourcePoint" />
            <mxPoint x="560" y="270" as="targetPoint" />
            <Array as="points">
              <mxPoint x="560" y="960" />
            </Array>
          </mxGeometry>
        </mxCell>
        <mxCell id="Up8UbrId6z3frbub8O2f-91" value="M:N" style="text;html=1;align=center;verticalAlign=middle;resizable=0;points=[];autosize=1;strokeColor=none;fillColor=none;" parent="1" vertex="1">
          <mxGeometry x="135" y="896" width="50" height="30" as="geometry" />
        </mxCell>
        <mxCell id="Up8UbrId6z3frbub8O2f-93" value="Amigos" style="rhombus;whiteSpace=wrap;html=1;" parent="1" vertex="1">
          <mxGeometry x="670" y="1040" width="130" height="60" as="geometry" />
        </mxCell>
        <mxCell id="Up8UbrId6z3frbub8O2f-95" value="" style="endArrow=none;html=1;rounded=0;entryX=0.5;entryY=1;entryDx=0;entryDy=0;exitX=0;exitY=1;exitDx=0;exitDy=0;" parent="1" source="Up8UbrId6z3frbub8O2f-93" target="Up8UbrId6z3frbub8O2f-11" edge="1">
          <mxGeometry width="50" height="50" relative="1" as="geometry">
            <mxPoint x="650" y="1100" as="sourcePoint" />
            <mxPoint x="380" y="560" as="targetPoint" />
            <Array as="points">
              <mxPoint x="580" y="1085" />
            </Array>
          </mxGeometry>
        </mxCell>
        <mxCell id="Up8UbrId6z3frbub8O2f-96" value="" style="endArrow=none;html=1;rounded=0;exitX=0;exitY=0;exitDx=0;exitDy=0;" parent="1" source="Up8UbrId6z3frbub8O2f-93" edge="1">
          <mxGeometry width="50" height="50" relative="1" as="geometry">
            <mxPoint x="710" y="830" as="sourcePoint" />
            <mxPoint x="588" y="270" as="targetPoint" />
            <Array as="points">
              <mxPoint x="588" y="1055" />
              <mxPoint x="588" y="825" />
            </Array>
          </mxGeometry>
        </mxCell>
        <mxCell id="WOAPnllCXagJjHV4k_21-5" value="Mensaje" style="rounded=0;whiteSpace=wrap;html=1;" parent="1" vertex="1">
          <mxGeometry x="-460" y="926" width="120" height="60" as="geometry" />
        </mxCell>
        <mxCell id="WOAPnllCXagJjHV4k_21-8" value="texto" style="ellipse;whiteSpace=wrap;html=1;" parent="1" vertex="1">
          <mxGeometry x="-455" y="808" width="110" height="60" as="geometry" />
        </mxCell>
        <mxCell id="WOAPnllCXagJjHV4k_21-9" value="" style="endArrow=none;html=1;rounded=0;entryX=0.5;entryY=1;entryDx=0;entryDy=0;exitX=0.5;exitY=0;exitDx=0;exitDy=0;" parent="1" edge="1">
          <mxGeometry width="50" height="50" relative="1" as="geometry">
            <mxPoint x="-400.5" y="926" as="sourcePoint" />
            <mxPoint x="-400.5" y="868" as="targetPoint" />
          </mxGeometry>
        </mxCell>
        <mxCell id="WOAPnllCXagJjHV4k_21-14" value="Manda" style="rhombus;whiteSpace=wrap;html=1;" parent="1" vertex="1">
          <mxGeometry x="-290" y="1058" width="130" height="60" as="geometry" />
        </mxCell>
        <mxCell id="WOAPnllCXagJjHV4k_21-15" value="" style="endArrow=none;html=1;rounded=0;entryX=0.25;entryY=1;entryDx=0;entryDy=0;exitX=1;exitY=0.5;exitDx=0;exitDy=0;" parent="1" source="WOAPnllCXagJjHV4k_21-14" edge="1">
          <mxGeometry width="50" height="50" relative="1" as="geometry">
            <mxPoint x="435" y="748" as="sourcePoint" />
            <mxPoint x="570" y="270" as="targetPoint" />
            <Array as="points">
              <mxPoint x="570" y="1088" />
            </Array>
          </mxGeometry>
        </mxCell>
        <mxCell id="WOAPnllCXagJjHV4k_21-16" value="" style="endArrow=none;html=1;rounded=0;entryX=0.5;entryY=1;entryDx=0;entryDy=0;exitX=0;exitY=0;exitDx=0;exitDy=0;" parent="1" source="WOAPnllCXagJjHV4k_21-14" target="WOAPnllCXagJjHV4k_21-5" edge="1">
          <mxGeometry width="50" height="50" relative="1" as="geometry">
            <mxPoint x="150" y="928" as="sourcePoint" />
            <mxPoint x="200" y="878" as="targetPoint" />
          </mxGeometry>
        </mxCell>
        <mxCell id="WOAPnllCXagJjHV4k_21-17" value="" style="endArrow=none;html=1;rounded=0;entryX=0.5;entryY=1;entryDx=0;entryDy=0;exitX=1;exitY=0;exitDx=0;exitDy=0;" parent="1" source="WOAPnllCXagJjHV4k_21-14" target="Up8UbrId6z3frbub8O2f-78" edge="1">
          <mxGeometry width="50" height="50" relative="1" as="geometry">
            <mxPoint x="150" y="928" as="sourcePoint" />
            <mxPoint x="200" y="878" as="targetPoint" />
          </mxGeometry>
        </mxCell>
        <mxCell id="WOAPnllCXagJjHV4k_21-18" value="timestamp" style="ellipse;whiteSpace=wrap;html=1;" parent="1" vertex="1">
          <mxGeometry x="-630" y="926" width="110" height="60" as="geometry" />
        </mxCell>
        <mxCell id="WOAPnllCXagJjHV4k_21-19" value="" style="endArrow=none;html=1;rounded=0;entryX=0;entryY=0.5;entryDx=0;entryDy=0;exitX=1;exitY=0.5;exitDx=0;exitDy=0;" parent="1" source="WOAPnllCXagJjHV4k_21-18" target="WOAPnllCXagJjHV4k_21-5" edge="1">
          <mxGeometry width="50" height="50" relative="1" as="geometry">
            <mxPoint x="-20" y="676" as="sourcePoint" />
            <mxPoint x="25" y="728" as="targetPoint" />
          </mxGeometry>
        </mxCell>
        <mxCell id="WOAPnllCXagJjHV4k_21-20" value="M:N" style="text;html=1;align=center;verticalAlign=middle;resizable=0;points=[];autosize=1;strokeColor=none;fillColor=none;" parent="1" vertex="1">
          <mxGeometry x="710" y="1010" width="50" height="30" as="geometry" />
        </mxCell>
        <mxCell id="WOAPnllCXagJjHV4k_21-23" value="tiene" style="rhombus;whiteSpace=wrap;html=1;" parent="1" vertex="1">
          <mxGeometry x="-125" y="572" width="130" height="60" as="geometry" />
        </mxCell>
        <mxCell id="WOAPnllCXagJjHV4k_21-25" value="" style="endArrow=none;html=1;rounded=0;entryX=0.5;entryY=1;entryDx=0;entryDy=0;exitX=0.5;exitY=0;exitDx=0;exitDy=0;" parent="1" source="WOAPnllCXagJjHV4k_21-28" target="WOAPnllCXagJjHV4k_21-23" edge="1">
          <mxGeometry width="50" height="50" relative="1" as="geometry">
            <mxPoint x="-60" y="900" as="sourcePoint" />
            <mxPoint x="190" y="690" as="targetPoint" />
          </mxGeometry>
        </mxCell>
        <mxCell id="WOAPnllCXagJjHV4k_21-26" value="1:1" style="text;html=1;align=center;verticalAlign=middle;resizable=0;points=[];autosize=1;strokeColor=none;fillColor=none;" parent="1" vertex="1">
          <mxGeometry x="-80" y="542" width="40" height="30" as="geometry" />
        </mxCell>
        <mxCell id="WOAPnllCXagJjHV4k_21-28" value="" style="ellipse;whiteSpace=wrap;html=1;aspect=fixed;" parent="1" vertex="1">
          <mxGeometry x="-65" y="916" width="10" height="10" as="geometry" />
        </mxCell>
        <mxCell id="WOAPnllCXagJjHV4k_21-29" value="" style="ellipse;whiteSpace=wrap;html=1;aspect=fixed;fillColor=#000000;" parent="1" vertex="1">
          <mxGeometry x="-335" y="460" width="10" height="10" as="geometry" />
        </mxCell>
        <mxCell id="WOAPnllCXagJjHV4k_21-31" value="&lt;b&gt;Estado&lt;/b&gt;" style="ellipse;whiteSpace=wrap;html=1;" parent="1" vertex="1">
          <mxGeometry x="-565" y="400" width="110" height="60" as="geometry" />
        </mxCell>
        <mxCell id="WOAPnllCXagJjHV4k_21-32" value="" style="endArrow=none;html=1;rounded=0;entryX=1;entryY=0.5;entryDx=0;entryDy=0;exitX=0;exitY=0.5;exitDx=0;exitDy=0;" parent="1" source="Up8UbrId6z3frbub8O2f-47" target="WOAPnllCXagJjHV4k_21-31" edge="1">
          <mxGeometry width="50" height="50" relative="1" as="geometry">
            <mxPoint x="-350" y="470" as="sourcePoint" />
            <mxPoint x="-395" y="522" as="targetPoint" />
          </mxGeometry>
        </mxCell>
        <mxCell id="WOAPnllCXagJjHV4k_21-33" value="tiene" style="rhombus;whiteSpace=wrap;html=1;" parent="1" vertex="1">
          <mxGeometry x="720" y="610" width="130" height="60" as="geometry" />
        </mxCell>
        <mxCell id="WOAPnllCXagJjHV4k_21-34" value="" style="endArrow=none;html=1;rounded=0;entryX=1;entryY=0.5;entryDx=0;entryDy=0;" parent="1" target="WOAPnllCXagJjHV4k_21-33" edge="1">
          <mxGeometry width="50" height="50" relative="1" as="geometry">
            <mxPoint x="920" y="640" as="sourcePoint" />
            <mxPoint x="800" y="480" as="targetPoint" />
          </mxGeometry>
        </mxCell>
        <mxCell id="WOAPnllCXagJjHV4k_21-36" value="Skin" style="rounded=0;whiteSpace=wrap;html=1;" parent="1" vertex="1">
          <mxGeometry x="920" y="610" width="120" height="60" as="geometry" />
        </mxCell>
        <mxCell id="WOAPnllCXagJjHV4k_21-38" value="" style="endArrow=none;html=1;rounded=0;exitX=0.25;exitY=0;exitDx=0;exitDy=0;" parent="1" source="WOAPnllCXagJjHV4k_21-36" edge="1">
          <mxGeometry width="50" height="50" relative="1" as="geometry">
            <mxPoint x="930" y="650" as="sourcePoint" />
            <mxPoint x="890" y="560" as="targetPoint" />
          </mxGeometry>
        </mxCell>
        <mxCell id="WOAPnllCXagJjHV4k_21-39" value="" style="endArrow=none;html=1;rounded=0;exitX=0.75;exitY=0;exitDx=0;exitDy=0;" parent="1" source="WOAPnllCXagJjHV4k_21-36" edge="1">
          <mxGeometry width="50" height="50" relative="1" as="geometry">
            <mxPoint x="960" y="620" as="sourcePoint" />
            <mxPoint x="1070" y="560" as="targetPoint" />
          </mxGeometry>
        </mxCell>
        <mxCell id="WOAPnllCXagJjHV4k_21-40" value="Precio" style="ellipse;whiteSpace=wrap;html=1;" parent="1" vertex="1">
          <mxGeometry x="800" y="510" width="110" height="60" as="geometry" />
        </mxCell>
        <mxCell id="WOAPnllCXagJjHV4k_21-41" value="Tipo" style="ellipse;whiteSpace=wrap;html=1;" parent="1" vertex="1">
          <mxGeometry x="1050" y="512" width="110" height="60" as="geometry" />
        </mxCell>
        <mxCell id="WOAPnllCXagJjHV4k_21-42" value="&lt;u&gt;idSkin&lt;/u&gt;" style="ellipse;whiteSpace=wrap;html=1;" parent="1" vertex="1">
          <mxGeometry x="925" y="740" width="110" height="60" as="geometry" />
        </mxCell>
        <mxCell id="WOAPnllCXagJjHV4k_21-43" value="" style="endArrow=none;html=1;rounded=0;entryX=0.5;entryY=1;entryDx=0;entryDy=0;exitX=0.5;exitY=0;exitDx=0;exitDy=0;" parent="1" source="WOAPnllCXagJjHV4k_21-42" target="WOAPnllCXagJjHV4k_21-36" edge="1">
          <mxGeometry width="50" height="50" relative="1" as="geometry">
            <mxPoint x="330" y="530" as="sourcePoint" />
            <mxPoint x="380" y="480" as="targetPoint" />
          </mxGeometry>
        </mxCell>
        <mxCell id="WOAPnllCXagJjHV4k_21-44" value="M:N" style="text;html=1;align=center;verticalAlign=middle;resizable=0;points=[];autosize=1;strokeColor=none;fillColor=none;" parent="1" vertex="1">
          <mxGeometry x="760" y="570" width="50" height="30" as="geometry" />
        </mxCell>
        <mxCell id="WOAPnllCXagJjHV4k_21-45" value="Elo" style="ellipse;whiteSpace=wrap;html=1;" parent="1" vertex="1">
          <mxGeometry x="370" y="330" width="110" height="60" as="geometry" />
        </mxCell>
        <mxCell id="WOAPnllCXagJjHV4k_21-46" value="" style="endArrow=none;html=1;rounded=0;entryX=1;entryY=0;entryDx=0;entryDy=0;exitX=0;exitY=1;exitDx=0;exitDy=0;" parent="1" source="Up8UbrId6z3frbub8O2f-11" target="WOAPnllCXagJjHV4k_21-45" edge="1">
          <mxGeometry width="50" height="50" relative="1" as="geometry">
            <mxPoint x="638" y="279" as="sourcePoint" />
            <mxPoint x="700" y="400" as="targetPoint" />
          </mxGeometry>
        </mxCell>
        <mxCell id="WOAPnllCXagJjHV4k_21-47" value="Terminada" style="ellipse;whiteSpace=wrap;html=1;" parent="1" vertex="1">
          <mxGeometry x="-260" y="280" width="110" height="60" as="geometry" />
        </mxCell>
        <mxCell id="WOAPnllCXagJjHV4k_21-48" value="" style="endArrow=none;html=1;rounded=0;entryX=0.5;entryY=1;entryDx=0;entryDy=0;exitX=0.75;exitY=0;exitDx=0;exitDy=0;" parent="1" source="Up8UbrId6z3frbub8O2f-47" target="WOAPnllCXagJjHV4k_21-47" edge="1">
          <mxGeometry width="50" height="50" relative="1" as="geometry">
            <mxPoint x="-320" y="410" as="sourcePoint" />
            <mxPoint x="-320" y="350" as="targetPoint" />
          </mxGeometry>
        </mxCell>
        <mxCell id="WOAPnllCXagJjHV4k_21-51" value="&lt;div style=&quot;&quot;&gt;Otra relaciÃ³n igual InvitacionPartida&lt;/div&gt;" style="text;html=1;strokeColor=none;fillColor=none;align=center;verticalAlign=middle;whiteSpace=wrap;rounded=0;" parent="1" vertex="1">
          <mxGeometry x="-150" y="440" width="180" height="80" as="geometry" />
        </mxCell>
        <mxCell id="bVkEB1NkfWJb3kjxlX-n-1" value="" style="endArrow=none;html=1;rounded=0;exitX=0.75;exitY=1;exitDx=0;exitDy=0;" edge="1" parent="1" source="Up8UbrId6z3frbub8O2f-11">
          <mxGeometry width="50" height="50" relative="1" as="geometry">
            <mxPoint x="610" y="230" as="sourcePoint" />
            <mxPoint x="720" y="719" as="targetPoint" />
            <Array as="points">
              <mxPoint x="610.44" y="718.86" />
            </Array>
          </mxGeometry>
        </mxCell>
        <mxCell id="bVkEB1NkfWJb3kjxlX-n-2" value="" style="endArrow=none;html=1;rounded=0;exitX=0.666;exitY=1.036;exitDx=0;exitDy=0;entryX=0;entryY=0.5;entryDx=0;entryDy=0;exitPerimeter=0;" edge="1" parent="1" source="Up8UbrId6z3frbub8O2f-11">
          <mxGeometry width="50" height="50" relative="1" as="geometry">
            <mxPoint x="599.9200000000001" y="306.8300000000001" as="sourcePoint" />
            <mxPoint x="720" y="820.0000000000001" as="targetPoint" />
            <Array as="points">
              <mxPoint x="600" y="820.0000000000001" />
            </Array>
          </mxGeometry>
        </mxCell>
        <mxCell id="bVkEB1NkfWJb3kjxlX-n-3" value="avatar" style="rhombus;whiteSpace=wrap;html=1;" vertex="1" parent="1">
          <mxGeometry x="720" y="690" width="130" height="60" as="geometry" />
        </mxCell>
        <mxCell id="bVkEB1NkfWJb3kjxlX-n-4" value="setFichas" style="rhombus;whiteSpace=wrap;html=1;" vertex="1" parent="1">
          <mxGeometry x="720" y="790" width="130" height="60" as="geometry" />
        </mxCell>
        <mxCell id="bVkEB1NkfWJb3kjxlX-n-5" value="" style="endArrow=none;html=1;rounded=0;entryX=0.25;entryY=1;entryDx=0;entryDy=0;exitX=1;exitY=0.5;exitDx=0;exitDy=0;" edge="1" parent="1" source="bVkEB1NkfWJb3kjxlX-n-4" target="WOAPnllCXagJjHV4k_21-36">
          <mxGeometry width="50" height="50" relative="1" as="geometry">
            <mxPoint x="710" y="600" as="sourcePoint" />
            <mxPoint x="760" y="550" as="targetPoint" />
          </mxGeometry>
        </mxCell>
        <mxCell id="bVkEB1NkfWJb3kjxlX-n-6" value="" style="endArrow=none;html=1;rounded=0;entryX=0;entryY=0.75;entryDx=0;entryDy=0;exitX=1;exitY=0.5;exitDx=0;exitDy=0;" edge="1" parent="1" source="bVkEB1NkfWJb3kjxlX-n-3" target="WOAPnllCXagJjHV4k_21-36">
          <mxGeometry width="50" height="50" relative="1" as="geometry">
            <mxPoint x="820" y="800" as="sourcePoint" />
            <mxPoint x="920" y="650" as="targetPoint" />
          </mxGeometry>
        </mxCell>
        <mxCell id="bVkEB1NkfWJb3kjxlX-n-9" value="Otra relacion igual&lt;br&gt;SolicitudAmistad" style="text;html=1;align=center;verticalAlign=middle;resizable=0;points=[];autosize=1;strokeColor=none;fillColor=none;" vertex="1" parent="1">
          <mxGeometry x="675" y="960" width="120" height="40" as="geometry" />
        </mxCell>
        <mxCell id="bVkEB1NkfWJb3kjxlX-n-10" value="El Estado seran un porron de &lt;br&gt;campos que no pongo aqui." style="text;html=1;align=center;verticalAlign=middle;resizable=0;points=[];autosize=1;strokeColor=none;fillColor=none;" vertex="1" parent="1">
          <mxGeometry x="-745" y="410" width="180" height="40" as="geometry" />
        </mxCell>
      </root>
    </mxGraphModel>
  </diagram>
</mxfile>
